<svg width="87" height="70" viewBox="0 0 87 70" fill="none" xmlns="http://www.w3.org/2000/svg">
<path d="M33.898 38.8386C34.212 33.2371 36.9551 28.3021 41.0933 24.8037C45.1515 21.3676 50.6138 19.2675 56.5738 19.2675C62.5279 19.2675 67.9902 21.3676 72.0514 24.8037C76.1867 28.3021 78.9297 33.2371 79.2466 38.8327C79.5606 44.5882 77.2472 49.9349 73.1889 53.8983C69.0507 57.9299 63.1648 60.4596 56.5738 60.4596C49.9829 60.4596 44.0851 57.9299 39.9499 53.8983C35.8887 49.9349 33.5811 44.5882 33.898 38.8386Z" fill="white"/>
<path d="M44.923 39.3448C45.0841 36.4706 46.4916 33.9384 48.615 32.1434C50.6973 30.3803 53.5 29.3027 56.5581 29.3027C59.6132 29.3027 62.4159 30.3803 64.4998 32.1434C66.6216 33.9384 68.029 36.4707 68.1917 39.3418C68.3528 42.295 67.1657 45.0384 65.0834 47.072C62.9601 49.1406 59.94 50.4386 56.5581 50.4386C53.1763 50.4386 50.1501 49.1406 48.0283 47.072C45.9444 45.0384 44.7604 42.2949 44.923 39.3448Z" fill="#585858"/>
<path d="M26.3942 45.1661C26.414 46.2908 26.7727 48.4765 27.3107 50.1833C28.4416 53.7962 30.3597 57.1384 33.0287 60.084C35.7676 63.1117 39.1404 65.5436 43.036 67.2702C47.1307 69.0835 51.5673 70.0076 56.1758 70C60.7766 69.9939 65.2133 69.0515 69.308 67.2246C73.2036 65.4812 76.5733 63.0388 79.3076 60.0096C81.9751 57.0518 83.8902 53.7035 85.0241 50.0906C85.5941 48.2652 85.9543 46.4124 86.0987 44.5536C86.2401 42.7221 86.1808 40.8875 85.9209 39.0545C85.4132 35.4827 84.1775 32.1313 82.2745 29.0763C80.5342 26.269 78.2908 23.8113 75.6233 21.7427L75.6294 21.7382L48.7099 1.06885C48.6855 1.05061 48.6658 1.03088 48.64 1.01416C46.8738 -0.341599 43.9039 -0.337032 41.9614 1.02177C39.9976 2.39577 39.7727 4.66801 41.5206 6.10129L41.513 6.10889L52.7407 15.239L18.5195 15.2755H18.4739C15.6453 15.2785 12.9261 17.1343 12.3881 19.4796C11.8348 21.8689 13.756 23.8508 16.6971 23.8615L16.6925 23.8721L34.038 23.8387L3.08605 47.5965C3.04653 47.6253 3.00397 47.6557 2.96749 47.6846C0.0477014 49.9204 -0.896155 53.6381 0.942964 55.9909C2.80944 58.3832 6.77798 58.3878 9.72817 56.0046L26.6207 42.1795C26.6207 42.1795 26.3745 44.0459 26.3942 45.1661ZM69.802 51.416C66.3213 54.9619 61.4484 56.9728 56.1758 56.9834C50.8955 56.9925 46.0226 54.9999 42.542 51.4601C40.8412 49.735 39.5918 47.75 38.8212 45.6358C38.0658 43.558 37.7724 41.3526 37.967 39.1275C38.1509 36.9525 38.7984 34.8778 39.832 33.0007C40.8473 31.1555 42.2456 29.4882 43.9722 28.0777C47.3556 25.3206 51.6631 23.828 56.1682 23.8219C60.6778 23.8159 64.9823 25.2948 68.3687 28.0428C70.0923 29.4472 71.4891 31.1084 72.5044 32.9506C73.5425 34.8261 74.1855 36.8932 74.377 39.0743C74.5685 41.2964 74.2751 43.4988 73.5197 45.578C72.7476 47.6983 71.5028 49.6833 69.802 51.416Z" fill="#585858"/>
</svg>
