<svg width="59" height="85" viewBox="0 0 59 85" fill="none" xmlns="http://www.w3.org/2000/svg">
<path d="M29.123 42.4561C29.123 38.9199 30.5278 35.5285 33.0283 33.028C35.5288 30.5276 38.9202 29.1228 42.4564 29.1228C45.9926 29.1228 49.384 30.5276 51.8845 33.028C54.385 35.5285 55.7897 38.9199 55.7897 42.4561C55.7897 45.9924 54.385 49.3837 51.8845 51.8842C49.384 54.3847 45.9926 55.7895 42.4564 55.7895C38.9202 55.7895 35.5288 54.3847 33.0283 51.8842C30.5278 49.3837 29.123 45.9924 29.123 42.4561V42.4561Z" stroke="#585858" stroke-width="4.91228"/>
<path d="M2.45605 69.1229C2.45605 65.5867 3.86081 62.1953 6.3613 59.6948C8.86178 57.1943 12.2532 55.7896 15.7894 55.7896H29.1227V69.1229C29.1227 72.6591 27.718 76.0505 25.2175 78.551C22.717 81.0515 19.3256 82.4562 15.7894 82.4562C12.2532 82.4562 8.86178 81.0515 6.3613 78.551C3.86081 76.0505 2.45605 72.6591 2.45605 69.1229Z" stroke="#585858" stroke-width="4.91228"/>
<path d="M29.123 2.45618V29.1228H42.4564C45.9926 29.1228 49.384 27.7181 51.8845 25.2176C54.385 22.7171 55.7897 19.3257 55.7897 15.7895C55.7897 12.2533 54.385 8.8619 51.8845 6.36142C49.384 3.86093 45.9926 2.45618 42.4564 2.45618L29.123 2.45618Z" stroke="#585858" stroke-width="4.91228"/>
<path d="M2.45605 15.7895C2.45605 19.3257 3.86081 22.7171 6.3613 25.2176C8.86178 27.7181 12.2532 29.1228 15.7894 29.1228H29.1227V2.45618H15.7894C12.2532 2.45618 8.86178 3.86093 6.3613 6.36142C3.86081 8.8619 2.45605 12.2533 2.45605 15.7895Z" stroke="#585858" stroke-width="4.91228"/>
<path d="M2.45605 42.4561C2.45605 45.9924 3.86081 49.3837 6.3613 51.8842C8.86178 54.3847 12.2532 55.7895 15.7894 55.7895H29.1227V29.1228H15.7894C12.2532 29.1228 8.86178 30.5276 6.3613 33.028C3.86081 35.5285 2.45605 38.9199 2.45605 42.4561Z" stroke="#585858" stroke-width="4.91228"/>
</svg>
